<svg xmlns="http://www.w3.org/2000/svg" viewBox="0 0 24 24" width="24" height="24">
  <path fill="#fff" d="M12 2C6.48 2 2 6.48 2 12s4.48 10 10 10 10-4.48 10-10S17.52 2 12 2zm5.64 13.64c-.66 1.95-2.28 3.39-4.24 3.89-1.96.5-4.02-.04-5.63-1.48-1.61-1.44-2.39-3.57-2.11-5.72.28-2.15 1.71-3.99 3.72-4.76 1.21-.47 2.49-.5 3.73-.13 1.24.37 2.33 1.12 3.12 2.15l-2.06 1.89c-.35-.45-.82-.79-1.34-.98-.53-.19-1.09-.23-1.64-.12-.55.11-1.06.37-1.47.75-.41.38-.71.87-.87 1.41-.16.54-.17 1.11-.03 1.66.14.55.43 1.05.84 1.45.41.4.92.67 1.47.79.55.12 1.12.08 1.65-.11.53-.19 1-.54 1.35-.99.35-.45.57-.99.64-1.56h-3.35v-2.5h5.88c.11.64.17 1.28.17 1.92 0 1.44-.31 2.87-.92 4.18z"/>
</svg> 